<svg xmlns="http://www.w3.org/2000/svg" version="1.1" xmlns:xlink="http://www.w3.org/1999/xlink" xmlns:svgjs="http://svgjs.dev/svgjs" width="1500" height="1500" viewBox="0 0 1500 1500"><rect width="1500" height="1500" fill="#191552"></rect><g transform="matrix(0.2773155851358846,0,0,0.2773155851358846,541.8233294721579,250.30581039755384)"><svg viewBox="0 0 136 327" data-background-color="#191552" preserveAspectRatio="xMidYMid meet" height="3606" width="1500" xmlns="http://www.w3.org/2000/svg" xmlns:xlink="http://www.w3.org/1999/xlink"><g id="tight-bounds" transform="matrix(1,0,0,1,0.06211336905482767,-0.10000000000002274)"><svg viewBox="0 0 135.87577326189037 327.2" height="327.2" width="135.87577326189037"><g><svg viewBox="0 0 263.1425352112676 633.668795063083" height="327.2" width="135.87577326189037"><g transform="matrix(1,0,0,1,0,306.46879506308306)"><svg viewBox="0 0 263.1425352112676 327.2" height="327.2" width="263.1425352112676"><g id="textblocktransform"><svg viewBox="0 0 263.1425352112676 327.2" height="327.2" width="263.1425352112676" id="textblock"><g><svg viewBox="0 0 263.1425352112676 327.2" height="327.2" width="263.1425352112676"><g transform="matrix(1,0,0,1,0,0)"><svg width="263.1425352112676" viewBox="4.25 -35.5 28.549999999999997 35.5" height="327.2" data-palette-color="url(#b577ab75-28c2-466a-9f00-b95cde669977)"></svg></g></svg></g></svg></g></svg></g><g transform="matrix(1,0,0,1,50.26022422535212,0)"><svg viewBox="0 0 162.62208676056338 280.2927950630831" height="280.2927950630831" width="162.62208676056338"><g><svg xmlns="http://www.w3.org/2000/svg" xml:space="preserve" viewBox="21.679106830508623 1 56.85827385947761 98" x="0" y="0" height="280.2927950630831" width="162.62208676056338" class="icon-icon-0" data-fill-palette-color="accent" id="icon-0"></svg></g></svg></g><g></g></svg></g><defs></defs><mask id="105fd9da-e59c-4bd9-97e4-b1281c5ec754"><g id="SvgjsG1004"><svg viewBox="0 0 135.87577326189037 327.2" height="327.2" width="135.87577326189037"><g><svg viewBox="0 0 263.1425352112676 633.668795063083" height="327.2" width="135.87577326189037"><g transform="matrix(1,0,0,1,0,306.46879506308306)"><svg viewBox="0 0 263.1425352112676 327.2" height="327.2" width="263.1425352112676"><g id="SvgjsG1003"><svg viewBox="0 0 263.1425352112676 327.2" height="327.2" width="263.1425352112676" id="SvgjsSvg1002"><g><svg viewBox="0 0 263.1425352112676 327.2" height="327.2" width="263.1425352112676"><g transform="matrix(1,0,0,1,0,0)"><svg width="263.1425352112676" viewBox="4.25 -35.5 28.549999999999997 35.5" height="327.2" data-palette-color="url(#b577ab75-28c2-466a-9f00-b95cde669977)"><path d="M28.3-35.5L32.8-35.5 32.8 0 28.3 0 28.3-16.15 8.75-16.15 8.75 0 4.25 0 4.25-35.5 8.75-35.5 8.75-20.15 28.3-20.15 28.3-35.5Z" opacity="1" transform="matrix(1,0,0,1,0,0)" fill="white" class="wordmark-text-0" id="SvgjsPath1001"></path></svg></g></svg></g></svg></g></svg></g><g transform="matrix(1,0,0,1,50.26022422535212,0)"><svg viewBox="0 0 162.62208676056338 280.2927950630831" height="280.2927950630831" width="162.62208676056338"><g><svg xmlns="http://www.w3.org/2000/svg" xml:space="preserve" viewBox="21.679106830508623 1 56.85827385947761 98" x="0" y="0" height="280.2927950630831" width="162.62208676056338" class="icon-icon-0" data-fill-palette-color="accent" id="SvgjsSvg1000"><path fill-rule="evenodd" d="M30.545 28.822c-1.165 7.217 0.33 14.85 6.5 19.041C30.758 19.81 45.756 8.664 59.646 1c-16.18 23.046 16.896 23.644 18.777 50.13C80.028 73.71 64.507 91.317 46.639 99c0.206-22.825-22.55-25.933-24.838-44.603-0.896-7.303 3.261-20.631 8.744-25.575" clip-rule="evenodd" fill="black"></path></svg></g></svg></g><g></g></svg></g><defs><mask></mask></defs></svg><rect width="135.87577326189037" height="327.2" fill="black" stroke="none" visibility="hidden"></rect></g></mask><linearGradient x1="0" x2="1" y1="0.578" y2="0.595" id="b577ab75-28c2-466a-9f00-b95cde669977"><stop stop-color="#6ee2f5" offset="0"></stop><stop stop-color="#6454f0" offset="1"></stop></linearGradient><rect width="135.87577326189037" height="327.2" fill="url(#b577ab75-28c2-466a-9f00-b95cde669977)" mask="url(#105fd9da-e59c-4bd9-97e4-b1281c5ec754)" data-fill-palette-color="primary"></rect><mask id="286a9445-1f97-48ef-81ab-d2e61f7ec145"><g id="SvgjsG1013"><svg viewBox="0 0 135.87577326189037 327.2" height="327.2" width="135.87577326189037"><g><svg viewBox="0 0 263.1425352112676 633.668795063083" height="327.2" width="135.87577326189037"><g transform="matrix(1,0,0,1,0,306.46879506308306)"><svg viewBox="0 0 263.1425352112676 327.2" height="327.2" width="263.1425352112676"><g id="SvgjsG1012"><svg viewBox="0 0 263.1425352112676 327.2" height="327.2" width="263.1425352112676" id="SvgjsSvg1011"><g><svg viewBox="0 0 263.1425352112676 327.2" height="327.2" width="263.1425352112676"><g transform="matrix(1,0,0,1,0,0)"><svg width="263.1425352112676" viewBox="4.25 -35.5 28.549999999999997 35.5" height="327.2" data-palette-color="url(#b577ab75-28c2-466a-9f00-b95cde669977)"></svg></g></svg></g></svg></g></svg></g><g transform="matrix(1,0,0,1,50.26022422535212,0)"><svg viewBox="0 0 162.62208676056338 280.2927950630831" height="280.2927950630831" width="162.62208676056338"><g><svg xmlns="http://www.w3.org/2000/svg" xml:space="preserve" viewBox="21.679106830508623 1 56.85827385947761 98" x="0" y="0" height="280.2927950630831" width="162.62208676056338" class="icon-icon-0" data-fill-palette-color="accent" id="SvgjsSvg1010"><path fill-rule="evenodd" d="M30.545 28.822c-1.165 7.217 0.33 14.85 6.5 19.041C30.758 19.81 45.756 8.664 59.646 1c-16.18 23.046 16.896 23.644 18.777 50.13C80.028 73.71 64.507 91.317 46.639 99c0.206-22.825-22.55-25.933-24.838-44.603-0.896-7.303 3.261-20.631 8.744-25.575" clip-rule="evenodd" fill="white"></path></svg></g></svg></g><g></g></svg></g><defs><mask></mask></defs><mask><g id="SvgjsG1009"><svg viewBox="0 0 135.87577326189037 327.2" height="327.2" width="135.87577326189037"><g><svg viewBox="0 0 263.1425352112676 633.668795063083" height="327.2" width="135.87577326189037"><g transform="matrix(1,0,0,1,0,306.46879506308306)"><svg viewBox="0 0 263.1425352112676 327.2" height="327.2" width="263.1425352112676"><g id="SvgjsG1008"><svg viewBox="0 0 263.1425352112676 327.2" height="327.2" width="263.1425352112676" id="SvgjsSvg1007"><g><svg viewBox="0 0 263.1425352112676 327.2" height="327.2" width="263.1425352112676"><g transform="matrix(1,0,0,1,0,0)"><svg width="263.1425352112676" viewBox="4.25 -35.5 28.549999999999997 35.5" height="327.2" data-palette-color="url(#b577ab75-28c2-466a-9f00-b95cde669977)"><path d="M28.3-35.5L32.8-35.5 32.8 0 28.3 0 28.3-16.15 8.75-16.15 8.75 0 4.25 0 4.25-35.5 8.75-35.5 8.75-20.15 28.3-20.15 28.3-35.5Z" opacity="1" transform="matrix(1,0,0,1,0,0)" fill="black" class="wordmark-text-0" id="SvgjsPath1006"></path></svg></g></svg></g></svg></g></svg></g><g transform="matrix(1,0,0,1,50.26022422535212,0)"><svg viewBox="0 0 162.62208676056338 280.2927950630831" height="280.2927950630831" width="162.62208676056338"><g><svg xmlns="http://www.w3.org/2000/svg" xml:space="preserve" viewBox="21.679106830508623 1 56.85827385947761 98" x="0" y="0" height="280.2927950630831" width="162.62208676056338" class="icon-icon-0" data-fill-palette-color="accent" id="SvgjsSvg1005"><path fill-rule="evenodd" d="M30.545 28.822c-1.165 7.217 0.33 14.85 6.5 19.041C30.758 19.81 45.756 8.664 59.646 1c-16.18 23.046 16.896 23.644 18.777 50.13C80.028 73.71 64.507 91.317 46.639 99c0.206-22.825-22.55-25.933-24.838-44.603-0.896-7.303 3.261-20.631 8.744-25.575" clip-rule="evenodd" fill="black"></path></svg></g></svg></g><g></g></svg></g><defs><mask></mask></defs></svg><rect width="135.87577326189037" height="327.2" fill="black" stroke="none" visibility="hidden"></rect></g></mask></svg><rect width="135.87577326189037" height="327.2" fill="black" stroke="none" visibility="hidden"></rect></g></mask><linearGradient x1="0" x2="1" y1="0.578" y2="0.595" id="add2d3b2-bc6b-4a04-a2a5-8da41c4e9ec9"><stop stop-color="#6ee2f5" offset="0"></stop><stop stop-color="#6454f0" offset="1"></stop></linearGradient><rect width="135.87577326189037" height="327.2" fill="url(#add2d3b2-bc6b-4a04-a2a5-8da41c4e9ec9)" mask="url(#286a9445-1f97-48ef-81ab-d2e61f7ec145)" data-fill-palette-color="accent"></rect></svg><rect width="135.87577326189037" height="327.2" fill="none" stroke="none" visibility="hidden"></rect></g></svg></g></svg>